<svg xmlns="http://www.w3.org/2000/svg" fill="#aaaaaa" width="39.987" height="52.632" viewBox="0 0 464.969 612">
  <path fill="#aaaaaa" stroke="#aaaaaa" d="M232.993,299.308c68.112,0,123.332-67,123.332-149.653S338.2,0,232.993,0,109.658,67,109.658,149.655,164.878,299.308,232.993,299.308ZM0.043,527.811c-0.021-5.039-.042-1.419,0,0h0Zm465.89,3.937c0.066-1.38.023-9.572,0,0h0Zm-0.263-9.98c-2.284-143.98-21.107-185.007-165.145-210.977,0,0-20.275,25.811-67.533,25.811s-67.538-25.811-67.538-25.811C22.988,336.478,3.021,376.9.4,517.091,0.18,528.539.08,529.14,0.041,527.812c0.009,2.49.019,7.1,0.019,15.126,0,0,34.292,69.062,232.931,69.062s232.93-69.062,232.93-69.062c0-5.16,0-8.748.009-11.189C465.893,532.571,465.816,530.978,465.67,521.768Z" transform="translate(-0.031)"/>
</svg>
